<svg id="visual" viewBox="0 0 960 540" width="960" height="540" xmlns="http://www.w3.org/2000/svg" xmlns:xlink="http://www.w3.org/1999/xlink" version="1.1"><rect x="0" y="0" width="960" height="540" fill="#100720"></rect><defs><linearGradient id="grad1_0" x1="43.8%" y1="100%" x2="100%" y2="0%"><stop offset="14.444444444444446%" stop-color="#ffc23c" stop-opacity="1"></stop><stop offset="85.55555555555554%" stop-color="#ffc23c" stop-opacity="1"></stop></linearGradient></defs><defs><linearGradient id="grad1_1" x1="43.8%" y1="100%" x2="100%" y2="0%"><stop offset="14.444444444444446%" stop-color="#ffc23c" stop-opacity="1"></stop><stop offset="85.55555555555554%" stop-color="#e6774d" stop-opacity="1"></stop></linearGradient></defs><defs><linearGradient id="grad1_2" x1="43.8%" y1="100%" x2="100%" y2="0%"><stop offset="14.444444444444446%" stop-color="#a74358" stop-opacity="1"></stop><stop offset="85.55555555555554%" stop-color="#e6774d" stop-opacity="1"></stop></linearGradient></defs><defs><linearGradient id="grad1_3" x1="43.8%" y1="100%" x2="100%" y2="0%"><stop offset="14.444444444444446%" stop-color="#a74358" stop-opacity="1"></stop><stop offset="85.55555555555554%" stop-color="#552549" stop-opacity="1"></stop></linearGradient></defs><defs><linearGradient id="grad1_4" x1="43.8%" y1="100%" x2="100%" y2="0%"><stop offset="14.444444444444446%" stop-color="#100720" stop-opacity="1"></stop><stop offset="85.55555555555554%" stop-color="#552549" stop-opacity="1"></stop></linearGradient></defs><defs><linearGradient id="grad2_0" x1="0%" y1="100%" x2="56.3%" y2="0%"><stop offset="14.444444444444446%" stop-color="#ffc23c" stop-opacity="1"></stop><stop offset="85.55555555555554%" stop-color="#ffc23c" stop-opacity="1"></stop></linearGradient></defs><defs><linearGradient id="grad2_1" x1="0%" y1="100%" x2="56.3%" y2="0%"><stop offset="14.444444444444446%" stop-color="#e6774d" stop-opacity="1"></stop><stop offset="85.55555555555554%" stop-color="#ffc23c" stop-opacity="1"></stop></linearGradient></defs><defs><linearGradient id="grad2_2" x1="0%" y1="100%" x2="56.3%" y2="0%"><stop offset="14.444444444444446%" stop-color="#e6774d" stop-opacity="1"></stop><stop offset="85.55555555555554%" stop-color="#a74358" stop-opacity="1"></stop></linearGradient></defs><defs><linearGradient id="grad2_3" x1="0%" y1="100%" x2="56.3%" y2="0%"><stop offset="14.444444444444446%" stop-color="#552549" stop-opacity="1"></stop><stop offset="85.55555555555554%" stop-color="#a74358" stop-opacity="1"></stop></linearGradient></defs><defs><linearGradient id="grad2_4" x1="0%" y1="100%" x2="56.3%" y2="0%"><stop offset="14.444444444444446%" stop-color="#552549" stop-opacity="1"></stop><stop offset="85.55555555555554%" stop-color="#100720" stop-opacity="1"></stop></linearGradient></defs><g transform="translate(960, 540)"><path d="M-297 0C-262.7 -26.8 -228.5 -53.6 -218 -90.3C-207.6 -127 -220.9 -173.5 -207.2 -207.2C-193.5 -240.8 -152.7 -261.6 -113.7 -274.4C-74.6 -287.2 -37.3 -292.1 0 -297L0 0Z" fill="#2f1937"></path><path d="M-237.6 0C-210.2 -21.5 -182.8 -42.9 -174.4 -72.3C-166.1 -101.6 -176.7 -138.8 -165.7 -165.7C-154.8 -192.7 -122.2 -209.3 -90.9 -219.5C-59.7 -229.8 -29.8 -233.7 0 -237.6L0 0Z" fill="#7f3254"></path><path d="M-178.2 0C-157.6 -16.1 -137.1 -32.2 -130.8 -54.2C-124.5 -76.2 -132.5 -104.1 -124.3 -124.3C-116.1 -144.5 -91.6 -156.9 -68.2 -164.6C-44.8 -172.3 -22.4 -175.3 0 -178.2L0 0Z" fill="#ca5a55"></path><path d="M-118.8 0C-105.1 -10.7 -91.4 -21.5 -87.2 -36.1C-83 -50.8 -88.4 -69.4 -82.9 -82.9C-77.4 -96.3 -61.1 -104.6 -45.5 -109.8C-29.8 -114.9 -14.9 -116.8 0 -118.8L0 0Z" fill="#f89b43"></path><path d="M-59.4 0C-52.5 -5.4 -45.7 -10.7 -43.6 -18.1C-41.5 -25.4 -44.2 -34.7 -41.4 -41.4C-38.7 -48.2 -30.5 -52.3 -22.7 -54.9C-14.9 -57.4 -7.5 -58.4 0 -59.4L0 0Z" fill="#ffc23c"></path></g><g transform="translate(0, 0)"><path d="M297 0C254.8 21.1 212.6 42.2 206 85.3C199.4 128.5 228.4 193.6 210 210C191.6 226.4 125.9 194.1 83 200.5C40.2 206.9 20.1 251.9 0 297L0 0Z" fill="#2f1937"></path><path d="M237.6 0C203.9 16.9 170.1 33.8 164.8 68.3C159.5 102.8 182.7 154.9 168 168C153.3 181.1 100.7 155.3 66.4 160.4C32.1 165.5 16.1 201.5 0 237.6L0 0Z" fill="#7f3254"></path><path d="M178.2 0C152.9 12.7 127.6 25.3 123.6 51.2C119.6 77.1 137 116.2 126 126C115 135.9 75.6 116.5 49.8 120.3C24.1 124.1 12 151.2 0 178.2L0 0Z" fill="#ca5a55"></path><path d="M118.8 0C101.9 8.4 85.1 16.9 82.4 34.1C79.8 51.4 91.4 77.4 84 84C76.7 90.6 50.4 77.6 33.2 80.2C16.1 82.7 8 100.8 0 118.8L0 0Z" fill="#f89b43"></path><path d="M59.4 0C51 4.2 42.5 8.4 41.2 17.1C39.9 25.7 45.7 38.7 42 42C38.3 45.3 25.2 38.8 16.6 40.1C8 41.4 4 50.4 0 59.4L0 0Z" fill="#ffc23c"></path></g></svg>